<?xml version="1.0" standalone="no"?>
<!DOCTYPE svg PUBLIC "-//W3C//DTD SVG 20010904//EN"
 "http://www.w3.org/TR/2001/REC-SVG-20010904/DTD/svg10.dtd">
<svg version="1.0" xmlns="http://www.w3.org/2000/svg"
 width="298.000000pt" height="298.000000pt" viewBox="0 0 298.000000 298.000000"
 preserveAspectRatio="xMidYMid meet">
<metadata>
Created by potrace 1.14, written by Peter Selinger 2001-2017
</metadata>
<g transform="translate(0.000000,298.000000) scale(0.100000,-0.100000)"
fill="#000000" stroke="none">
<path d="M45 1810 c-2 -3 -4 -107 -4 -229 l0 -223 132 4 c118 3 136 6 165 26
59 42 66 140 13 184 l-27 23 24 20 c16 14 24 33 27 64 4 59 -9 84 -57 111 -34
19 -57 23 -154 25 -63 1 -117 -1 -119 -5z m187 -79 c42 -2 57 -56 25 -89 -13
-13 -80 -23 -103 -15 -7 3 -13 100 -5 110 0 1 16 0 34 -2 17 -2 40 -4 49 -4z
m26 -185 c12 -4 22 -13 23 -19 0 -7 2 -20 4 -30 2 -10 -5 -27 -16 -38 -16 -16
-31 -19 -72 -17 l-52 3 -1 50 c0 28 1 53 3 56 4 8 80 5 111 -5z"/>
<path d="M524 1800 c-53 -27 -79 -73 -70 -124 10 -52 51 -88 135 -121 39 -15
78 -34 86 -42 51 -50 -41 -110 -103 -67 -13 9 -27 26 -32 39 -7 19 -15 22 -52
21 -38 -2 -43 -5 -46 -28 -8 -64 105 -132 205 -124 93 9 143 56 143 135 0 57
-44 100 -142 137 -79 30 -103 52 -93 84 16 50 135 35 135 -17 0 -9 15 -13 51
-13 l52 0 -7 32 c-19 93 -157 139 -262 88z"/>
<path d="M820 1805 c0 -6 33 -107 74 -225 l73 -215 57 -3 c31 -2 56 -2 56 0 0
2 34 101 75 221 41 120 75 222 75 226 0 14 -103 7 -111 -9 -5 -8 -27 -80 -49
-159 -22 -80 -42 -146 -44 -148 -4 -4 -21 48 -66 207 l-32 115 -54 0 c-31 0
-54 -4 -54 -10z"/>
<path d="M1420 1799 c-79 -48 -105 -112 -98 -233 9 -140 65 -205 183 -210 91
-5 153 34 180 111 13 37 13 38 -13 43 -44 9 -82 0 -82 -20 0 -42 -73 -69 -120
-45 -32 17 -42 45 -45 134 -5 113 23 161 92 161 37 0 73 -29 73 -60 0 -18 7
-20 54 -20 l55 0 -9 30 c-25 86 -86 130 -181 130 -37 0 -65 -7 -89 -21z"/>
<path d="M2195 1812 c-3 -3 -5 -106 -5 -229 l1 -223 95 0 c101 0 150 13 192
53 83 77 90 250 14 333 -48 53 -84 66 -193 68 -55 2 -101 0 -104 -2z m203 -95
c25 -20 42 -74 42 -133 0 -97 -37 -144 -113 -144 l-33 0 2 148 c1 81 2 148 3
148 5 7 88 -9 99 -19z"/>
<path d="M2609 1783 c0 -18 -1 -114 -1 -213 0 -99 1 -187 1 -195 1 -13 25 -15
154 -15 l152 0 2 40 3 40 -105 0 -105 0 0 59 0 58 75 -1 c42 -1 81 1 87 5 7 4
13 21 14 38 3 34 11 32 -108 33 l-68 0 0 52 0 52 103 0 102 0 3 37 c2 25 -1
37 -10 38 -7 1 -77 2 -155 3 l-143 2 -1 -33z"/>
<path d="M1765 1530 l0 -160 152 0 153 0 0 25 c0 21 5 25 29 25 46 0 54 20 55
133 0 56 -3 110 -6 120 -7 15 -26 17 -195 17 l-188 0 0 -160z m365 31 c0 -81
-3 -100 -16 -105 -42 -16 -44 -11 -44 103 0 114 6 128 43 109 14 -7 17 -23 17
-107z m-260 52 c0 -5 -9 -21 -20 -38 -19 -29 -19 -30 1 -63 24 -41 16 -57 -12
-22 -30 40 -31 57 -7 94 22 33 38 46 38 29z m70 1 c0 -23 -35 -144 -42 -144
-12 0 -10 13 9 86 9 35 21 64 25 64 4 0 8 -3 8 -6z m59 -23 c27 -38 26 -59 -4
-96 -28 -34 -33 -17 -8 25 15 26 15 30 -6 64 -27 43 -11 49 18 7z"/>
<path d="M1386 1175 c-19 -20 -18 -105 1 -105 8 0 13 12 13 29 0 17 5 33 11
37 8 4 7 9 -2 15 -12 8 -12 10 0 18 8 5 9 11 3 15 -6 3 -17 -1 -26 -9z"/>
<path d="M2060 1131 c0 -34 4 -61 10 -61 6 0 10 14 10 31 0 31 24 38 26 8 2
-33 5 -39 15 -39 6 0 9 16 7 38 -2 30 -7 38 -25 40 -13 2 -23 10 -23 17 0 8
-4 17 -10 20 -6 4 -10 -17 -10 -54z"/>
<path d="M60 1126 c0 -55 1 -56 28 -56 35 0 52 16 52 50 0 36 -11 49 -48 56
l-32 7 0 -57z m55 1 c-4 -36 -4 -37 -20 -37 -13 0 -19 41 -8 62 8 16 30 -4 28
-25z"/>
<path d="M690 1126 c0 -40 4 -56 13 -56 18 0 17 102 0 108 -10 3 -13 -12 -13
-52z"/>
<path d="M1050 1166 c0 -9 -8 -16 -19 -16 -22 0 -35 -30 -26 -60 4 -14 15 -20
36 -20 25 0 29 4 30 30 1 17 2 40 2 52 1 12 -4 23 -11 26 -6 2 -12 -3 -12 -12z
m0 -56 c0 -11 -4 -20 -9 -20 -11 0 -22 26 -14 34 12 12 23 5 23 -14z"/>
<path d="M1870 1126 c0 -40 4 -56 13 -56 18 0 17 102 -1 108 -8 2 -12 -13 -12
-52z"/>
<path d="M1920 1170 c0 -5 7 -10 16 -10 8 0 12 5 9 10 -3 6 -10 10 -16 10 -5
0 -9 -4 -9 -10z"/>
<path d="M2579 1178 c-1 -4 -1 -80 0 -95 1 -7 6 -13 11 -13 6 0 10 25 10 55 0
30 -4 55 -10 55 -5 0 -10 -1 -11 -2z"/>
<path d="M2625 1170 c-3 -5 1 -10 9 -10 9 0 16 5 16 10 0 6 -4 10 -9 10 -6 0
-13 -4 -16 -10z"/>
<path d="M2769 1178 c-1 -2 -3 -27 -5 -56 -2 -38 1 -52 9 -49 7 2 12 14 12 27
0 13 6 25 13 28 8 2 12 -7 12 -27 0 -17 5 -31 10 -31 10 0 13 7 13 35 0 37 -4
45 -23 45 -11 0 -20 7 -20 15 0 12 -16 22 -21 13z"/>
<path d="M1528 1158 c-4 -11 -3 -38 1 -80 1 -5 11 -8 22 -8 18 0 19 2 9 15 -7
8 -10 24 -7 36 9 35 -14 69 -25 37z"/>
<path d="M171 1136 c-26 -31 8 -77 45 -61 17 7 17 8 -6 15 -25 8 -25 8 -2 9
18 1 23 6 20 24 -4 26 -39 35 -57 13z m39 -10 c0 -2 -7 -7 -16 -10 -8 -3 -12
-2 -9 4 6 10 25 14 25 6z"/>
<path d="M257 1143 c-13 -13 -7 -32 13 -38 11 -3 20 -11 20 -16 0 -6 -9 -5
-21 2 -17 9 -20 8 -17 -3 6 -18 49 -23 59 -7 10 16 3 28 -25 40 -21 9 -21 10
2 5 14 -3 22 1 22 10 0 14 -41 20 -53 7z"/>
<path d="M338 1125 c-14 -30 3 -55 38 -55 30 0 32 20 2 21 -22 1 -19 2 20 15
10 3 10 9 2 24 -15 28 -48 25 -62 -5z m42 -5 c0 -5 -2 -10 -4 -10 -3 0 -8 5
-11 10 -3 6 -1 10 4 10 6 0 11 -4 11 -10z"/>
<path d="M422 1110 c0 -27 5 -40 14 -40 9 0 14 11 14 30 0 17 5 30 10 30 6 0
10 -13 10 -30 0 -27 18 -44 21 -20 7 56 0 70 -35 70 -34 0 -35 -1 -34 -40z"/>
<path d="M515 1133 c4 -10 10 -28 12 -40 7 -33 29 -28 42 8 6 18 11 36 11 40
0 17 -17 9 -28 -13 l-11 -23 0 23 c-1 13 -7 22 -17 22 -12 0 -14 -5 -9 -17z"/>
<path d="M601 1128 c-13 -34 4 -60 37 -56 24 3 27 7 27 38 0 31 -3 35 -28 38
-21 3 -29 -2 -36 -20z m49 -18 c0 -11 -7 -20 -15 -20 -8 0 -15 9 -15 20 0 11
7 20 15 20 8 0 15 -9 15 -20z"/>
<path d="M740 1136 c0 -28 20 -66 34 -66 7 0 16 10 19 23 2 12 8 30 12 40 5
12 3 17 -9 17 -9 0 -16 -8 -16 -20 0 -11 -4 -20 -10 -20 -5 0 -9 3 -9 8 3 18
-2 32 -11 32 -5 0 -10 -6 -10 -14z"/>
<path d="M831 1136 c-26 -31 8 -77 45 -61 18 8 18 9 -3 12 -14 3 -21 11 -20
24 1 10 5 19 10 19 5 0 7 -7 3 -15 -3 -9 0 -15 10 -15 10 0 14 8 12 23 -4 26
-39 35 -57 13z"/>
<path d="M910 1109 c0 -27 4 -39 15 -39 9 0 13 9 12 27 -1 14 4 28 11 30 8 3
12 -6 12 -26 0 -17 5 -31 11 -31 6 0 9 16 7 38 -3 34 -6 37 -35 39 -32 1 -33
0 -33 -38z"/>
<path d="M1098 1125 c-14 -30 3 -55 37 -55 16 0 25 8 29 26 13 51 -44 76 -66
29z m45 -10 c7 -16 -8 -29 -23 -20 -10 6 -2 35 10 35 4 0 10 -7 13 -15z"/>
<path d="M1235 1130 c-10 -33 4 -60 31 -60 29 0 47 35 32 63 -12 24 -55 22
-63 -3z m45 -20 c0 -11 -7 -20 -15 -20 -15 0 -21 21 -8 33 12 13 23 7 23 -13z"/>
<path d="M1432 1114 c3 -36 6 -39 36 -42 31 -3 32 -2 32 37 0 23 -4 41 -10 41
-10 0 -14 -21 -11 -47 1 -7 -5 -13 -13 -13 -10 0 -14 9 -13 27 1 14 -4 28 -11
31 -10 3 -13 -6 -10 -34z"/>
<path d="M1582 1114 c3 -36 6 -39 36 -42 31 -3 32 -2 32 37 0 23 -4 41 -10 41
-5 0 -10 -13 -10 -30 0 -20 -5 -30 -15 -30 -9 0 -13 9 -12 27 1 14 -4 28 -11
31 -10 3 -13 -6 -10 -34z"/>
<path d="M1672 1110 c0 -25 5 -40 13 -40 7 0 13 12 13 27 0 15 5 29 11 31 20
7 11 22 -13 22 -22 0 -25 -4 -24 -40z"/>
<path d="M1742 1138 c-25 -25 -7 -68 29 -68 29 0 44 27 31 55 -12 27 -40 33
-60 13z m38 -28 c0 -19 -11 -26 -23 -14 -8 8 3 34 14 34 5 0 9 -9 9 -20z"/>
<path d="M1920 1110 c0 -26 5 -40 13 -40 8 0 12 12 11 33 -3 46 -3 47 -14 47
-5 0 -10 -18 -10 -40z"/>
<path d="M1968 1131 c-5 -24 3 -61 13 -61 5 0 9 14 9 31 0 20 4 29 13 26 6 -2
11 -16 11 -30 -1 -17 4 -27 12 -27 15 0 19 47 6 66 -11 18 -60 14 -64 -5z"/>
<path d="M2155 1140 c-4 -6 6 -10 22 -11 28 -1 28 -1 3 -8 -15 -4 -26 -15 -28
-29 -3 -19 1 -22 31 -22 34 0 35 2 33 33 -2 17 -4 35 -5 40 -2 11 -49 9 -56
-3z m35 -46 c0 -8 -5 -12 -10 -9 -6 4 -8 11 -5 16 9 14 15 11 15 -7z"/>
<path d="M2287 1143 c-10 -20 -1 -97 12 -101 10 -3 12 0 8 12 -5 11 -1 16 12
16 16 0 33 12 42 30 1 3 -3 15 -10 28 -11 21 -55 31 -64 15z m43 -33 c0 -11
-4 -20 -9 -20 -11 0 -22 26 -14 34 12 12 23 5 23 -14z"/>
<path d="M2380 1135 c-26 -32 13 -81 48 -59 21 14 28 54 10 65 -20 13 -44 11
-58 -6z m43 -20 c7 -16 -8 -29 -23 -20 -10 6 -2 35 10 35 4 0 10 -7 13 -15z"/>
<path d="M2470 1110 c0 -22 5 -40 10 -40 6 0 10 14 10 30 0 21 5 30 16 30 8 0
12 5 9 10 -3 6 -15 10 -26 10 -16 0 -19 -7 -19 -40z"/>
<path d="M2629 1143 c-7 -50 -5 -73 7 -73 10 0 14 13 14 40 0 22 -4 40 -10 40
-5 0 -10 -3 -11 -7z"/>
<path d="M2670 1108 c0 -25 4 -38 14 -38 7 0 13 8 13 18 0 33 3 42 13 42 6 0
10 -13 10 -30 0 -16 5 -30 10 -30 6 0 10 18 10 40 0 39 -1 39 -35 38 -34 -1
-35 -3 -35 -40z"/>
<path d="M2865 1143 c-9 -7 -10 -16 -6 -60 1 -8 14 -13 32 -13 29 0 30 2 27
38 -2 28 -8 38 -23 40 -11 1 -24 -1 -30 -5z m32 -19 c-3 -3 -12 -4 -19 -1 -8
3 -5 6 6 6 11 1 17 -2 13 -5z m-5 -36 c-7 -7 -12 -8 -12 -2 0 14 12 26 19 19
2 -3 -1 -11 -7 -17z"/>
</g>
</svg>
